<?xml version="1.0" standalone="no"?>
<!DOCTYPE svg PUBLIC "-//W3C//DTD SVG 20010904//EN"
 "http://www.w3.org/TR/2001/REC-SVG-20010904/DTD/svg10.dtd">
<svg version="1.0" xmlns="http://www.w3.org/2000/svg"
 width="466.000000pt" height="466.000000pt" viewBox="0 0 466.000000 466.000000"
 preserveAspectRatio="xMidYMid meet">
<metadata>
Created by potrace 1.14, written by Peter Selinger 2001-2017
</metadata>
<g transform="translate(0.000000,466.000000) scale(0.100000,-0.100000)"
fill="#000000" stroke="none">
<path d="M2235 4408 c5 -89 9 -140 20 -273 3 -33 8 -96 10 -140 3 -44 7 -102
10 -130 2 -27 6 -86 10 -130 3 -44 8 -102 10 -130 3 -27 7 -88 10 -135 3 -47
7 -107 9 -135 8 -92 17 -210 21 -265 10 -132 17 -229 20 -275 3 -27 7 -93 11
-145 3 -52 7 -96 8 -97 2 -2 296 195 491 330 39 26 196 134 350 238 154 105
357 243 450 307 94 64 203 138 242 165 40 26 75 52 77 56 3 4 -50 34 -117 66
-365 175 -480 230 -842 405 -93 45 -213 103 -265 127 -52 25 -191 92 -309 149
-118 57 -216 104 -218 104 -3 0 -2 -42 2 -92z m625 -515 c74 -36 230 -110 345
-165 116 -56 216 -105 223 -111 9 -7 -6 -22 -55 -55 -38 -24 -122 -82 -188
-127 -66 -45 -163 -111 -215 -147 -52 -35 -153 -104 -223 -152 -70 -49 -130
-87 -131 -85 -3 4 -14 130 -21 239 -1 19 -5 73 -9 120 -8 103 -13 165 -21 290
-4 52 -8 111 -10 130 -2 19 -6 77 -10 127 l-7 93 94 -46 c51 -26 154 -75 228
-111z"/>
<path d="M1895 3915 c-38 -29 -295 -216 -570 -415 -275 -199 -501 -365 -503
-369 -1 -3 28 -20 65 -36 63 -27 124 -54 248 -110 28 -13 194 -87 370 -165
176 -78 348 -155 382 -171 34 -16 64 -29 67 -29 2 0 38 -16 79 -35 41 -19 78
-35 82 -35 6 0 1 73 -10 170 -2 14 -6 54 -9 90 -10 97 -17 162 -21 190 -2 14
-7 59 -10 100 -3 41 -8 89 -10 105 -3 17 -7 55 -10 86 -2 31 -7 72 -9 90 -5
36 -17 153 -21 204 -2 17 -6 59 -10 95 -8 71 -9 79 -20 191 -4 42 -10 81 -14
86 -3 6 -36 -12 -76 -42z m-141 -495 c3 -25 8 -72 11 -105 3 -33 8 -76 11 -95
2 -19 6 -62 9 -95 3 -33 8 -77 11 -97 l5 -37 -103 46 c-57 25 -152 67 -213 94
-60 26 -111 51 -112 56 -1 4 70 60 159 123 88 63 173 125 187 137 14 12 27 21
27 20 1 -1 4 -22 8 -47z"/>
<path d="M3820 3111 c-188 -109 -888 -513 -951 -549 -19 -10 -59 -34 -89 -52
-30 -18 -73 -43 -95 -55 -22 -12 -56 -31 -75 -43 -19 -11 -53 -30 -75 -42 -48
-26 -80 -48 -74 -53 2 -2 29 -18 59 -34 54 -30 369 -211 624 -360 70 -41 142
-83 160 -92 17 -10 135 -78 261 -151 127 -73 246 -142 265 -152 19 -11 66 -38
103 -60 37 -23 70 -39 72 -36 3 3 4 406 3 895 l-3 891 -185 -107z m-85 -786
c0 -228 -4 -415 -8 -415 -4 0 -110 59 -235 131 -125 73 -274 159 -332 191
-175 99 -166 83 -69 138 46 26 100 57 119 69 73 44 515 300 520 300 3 1 5
-186 5 -414z"/>
<path d="M310 2736 c0 -8 5 -27 11 -43 6 -15 17 -50 24 -78 8 -27 63 -221 124
-430 60 -209 155 -537 211 -730 117 -406 136 -473 157 -538 l15 -48 27 29 c25
28 344 362 461 482 69 71 430 446 500 520 28 30 100 105 159 165 158 163 205
215 199 220 -3 3 -14 7 -24 9 -24 5 -156 37 -824 202 -676 168 -1029 254
-1035 254 -3 0 -5 -6 -5 -14z m846 -477 c247 -61 457 -112 467 -114 10 -2 27
-7 36 -10 20 -6 39 15 -274 -310 -95 -99 -225 -234 -288 -299 l-114 -119 -17
54 c-14 48 -61 209 -219 757 -24 83 -43 152 -42 152 2 0 205 -50 451 -111z"/>
<path d="M2369 2059 c-1 -24 -2 -57 -4 -74 -1 -16 -6 -75 -9 -130 -4 -55 -9
-116 -11 -135 -2 -19 -7 -78 -10 -130 -4 -52 -8 -111 -10 -130 -2 -19 -6 -78
-10 -130 -3 -52 -8 -113 -10 -135 -2 -22 -7 -83 -10 -135 -4 -52 -8 -111 -10
-130 -2 -19 -6 -84 -10 -145 -3 -60 -8 -121 -10 -135 -2 -14 -7 -68 -10 -120
-4 -52 -8 -115 -10 -140 -2 -25 -7 -89 -10 -143 l-7 -99 38 21 c22 12 125 62
229 112 316 151 414 198 565 271 301 146 625 302 819 395 62 30 111 57 107 60
-3 3 -89 63 -190 132 -102 69 -225 153 -273 186 -48 33 -160 109 -248 169 -88
60 -207 141 -265 181 -58 39 -154 105 -215 146 -60 41 -112 76 -115 79 -11 11
-281 191 -295 197 -12 4 -15 -4 -16 -38z m376 -538 c61 -41 173 -118 250 -171
456 -309 446 -302 427 -315 -9 -7 -42 -23 -72 -35 -30 -13 -67 -32 -82 -42
-14 -10 -30 -18 -36 -18 -5 0 -60 -25 -121 -56 -123 -60 -333 -162 -479 -230
l-93 -44 6 83 c3 45 8 107 10 137 2 30 7 91 10 135 5 75 10 139 19 260 3 28 7
94 11 148 4 54 8 106 10 115 2 9 4 41 4 70 1 40 4 51 14 46 6 -5 62 -42 122
-83z"/>
</g>
</svg>
