<svg width="448" height="122" viewBox="0 0 448 122" fill="none" xmlns="http://www.w3.org/2000/svg">
<path d="M149.381 62.4547H157.852V46.1081H158.111C159.284 48.6535 161.849 51.4973 166.781 51.4973C173.741 51.4973 179.17 45.9888 179.17 35.7672C179.17 25.2672 173.503 20.057 166.801 20.057C161.69 20.057 159.244 23.0996 158.111 25.5854H157.733V20.4547H149.381V62.4547ZM157.673 35.7274C157.673 30.2785 159.98 26.7984 164.097 26.7984C168.293 26.7984 170.52 30.4376 170.52 35.7274C170.52 41.057 168.253 44.7558 164.097 44.7558C160.02 44.7558 157.673 41.1763 157.673 35.7274Z" fill="black"/>
<path d="M193.29 10.2729H184.818V51.0001H193.29V10.2729Z" fill="black"/>
<path d="M208.786 51.5768C213.3 51.5768 216.224 49.6081 217.715 46.7643H217.954V51.0001H225.988V30.3979C225.988 23.1195 219.823 20.057 213.022 20.057C205.704 20.057 200.891 23.557 199.718 29.1251L207.553 29.7615C208.13 27.7331 209.94 26.2416 212.982 26.2416C215.866 26.2416 217.516 27.6933 217.516 30.199V30.3183C217.516 32.2871 215.428 32.5456 210.119 33.0626C204.073 33.6195 198.644 35.6479 198.644 42.4689C198.644 48.5143 202.959 51.5768 208.786 51.5768ZM211.212 45.7303C208.607 45.7303 206.738 44.5172 206.738 42.1905C206.738 39.8041 208.707 38.6308 211.69 38.2132C213.539 37.9547 216.562 37.5172 217.576 36.841V40.0825C217.576 43.2842 214.931 45.7303 211.212 45.7303Z" fill="black"/>
<path d="M248.807 20.4547H243.06V13.1365H234.589V20.4547H230.413V26.8183H234.589V42.7274C234.549 48.7132 238.626 51.6763 244.771 51.4178C246.958 51.3382 248.509 50.9007 249.364 50.6223L248.032 44.3183C247.614 44.3979 246.719 44.5967 245.924 44.5967C244.234 44.5967 243.06 43.9604 243.06 41.6138V26.8183H248.807V20.4547Z" fill="black"/>
<path d="M270.573 20.4547H264.826V13.1365H256.354V20.4547H252.178V26.8183H256.354V42.7274C256.315 48.7132 260.391 51.6763 266.536 51.4178C268.724 51.3382 270.275 50.9007 271.13 50.6223L269.797 44.3183C269.38 44.3979 268.485 44.5967 267.69 44.5967C265.999 44.5967 264.826 43.9604 264.826 41.6138V26.8183H270.573V20.4547Z" fill="black"/>
<path d="M292.518 20.4547H286.452V18.4064C286.452 16.3382 287.288 15.1251 289.773 15.1251C290.788 15.1251 291.822 15.3439 292.498 15.5626L293.989 9.199C292.935 8.88082 290.609 8.36377 288.003 8.36377C282.256 8.36377 277.981 11.6052 277.981 18.2473V20.4547H273.665V26.8183H277.981V51.0001H286.452V26.8183H292.518V20.4547Z" fill="black"/>
<path d="M310.4 51.5967C319.668 51.5967 325.435 45.253 325.435 35.8467C325.435 26.3808 319.668 20.057 310.4 20.057C301.133 20.057 295.366 26.3808 295.366 35.8467C295.366 45.253 301.133 51.5967 310.4 51.5967ZM310.44 45.0342C306.165 45.0342 303.977 41.1166 303.977 35.7871C303.977 30.4575 306.165 26.52 310.44 26.52C314.636 26.52 316.824 30.4575 316.824 35.7871C316.824 41.1166 314.636 45.0342 310.44 45.0342Z" fill="black"/>
<path d="M330.943 51.0001H339.415V33.7189C339.415 29.9604 342.159 27.3751 345.898 27.3751C347.071 27.3751 348.682 27.574 349.477 27.8325V20.3155C348.722 20.1365 347.668 20.0172 346.812 20.0172C343.392 20.0172 340.588 22.0058 339.474 25.7842H339.156V20.4547H330.943V51.0001Z" fill="black"/>
<path d="M353.857 51.0001H362.329V32.6649C362.329 29.2842 364.476 27.0371 367.3 27.0371C370.084 27.0371 371.954 28.9462 371.954 31.949V51.0001H380.167V32.3467C380.167 29.1848 381.976 27.0371 385.059 27.0371C387.763 27.0371 389.792 28.7274 389.792 32.128V51.0001H398.244V30.4575C398.244 23.8354 394.306 20.057 388.619 20.057C384.144 20.057 380.664 22.3439 379.411 25.8439H379.093C378.119 22.3041 374.996 20.057 370.8 20.057C366.684 20.057 363.562 22.2445 362.289 25.8439H361.931V20.4547H353.857V51.0001Z" fill="black"/>
<path d="M160.636 105.497C165.568 105.497 168.133 102.654 169.307 100.108H169.665V105H178.017V64.2729H169.565V79.5854H169.307C168.173 77.0996 165.727 74.057 160.616 74.057C153.915 74.057 148.247 79.2672 148.247 89.7672C148.247 99.9888 153.676 105.497 160.636 105.497ZM163.321 98.7558C159.165 98.7558 156.898 95.057 156.898 89.7274C156.898 84.4376 159.125 80.7984 163.321 80.7984C167.437 80.7984 169.744 84.2785 169.744 89.7274C169.744 95.1763 167.398 98.7558 163.321 98.7558Z" fill="black"/>
<path d="M190.212 116.455C196.516 116.455 199.857 113.233 201.587 108.301L213.459 74.4945L204.491 74.4547L198.107 96.8865H197.789L191.465 74.4547H182.556L193.513 105.875L193.016 107.168C191.903 110.031 189.775 110.171 186.792 109.256L184.883 115.58C186.096 116.097 188.065 116.455 190.212 116.455Z" fill="black"/>
<path d="M226.266 87.341C226.286 83.4035 228.633 81.0967 232.053 81.0967C235.454 81.0967 237.502 83.324 237.482 87.0626V105H245.954V85.5513C245.954 78.432 241.778 74.057 235.414 74.057C230.88 74.057 227.599 76.2842 226.226 79.8439H225.869V74.4547H217.795V105H226.266V87.341Z" fill="black"/>
<path d="M261.341 105.577C265.855 105.577 268.778 103.608 270.27 100.764H270.508V105H278.543V84.3979C278.543 77.1195 272.378 74.057 265.577 74.057C258.258 74.057 253.446 77.557 252.273 83.1251L260.108 83.7615C260.685 81.7331 262.494 80.2416 265.537 80.2416C268.42 80.2416 270.071 81.6933 270.071 84.199V84.3183C270.071 86.2871 267.983 86.5456 262.673 87.0626C256.628 87.6195 251.199 89.6479 251.199 96.4689C251.199 102.514 255.514 105.577 261.341 105.577ZM263.767 99.7302C261.162 99.7302 259.293 98.5172 259.293 96.1905C259.293 93.8041 261.261 92.6308 264.244 92.2132C266.094 91.9547 269.116 91.5172 270.131 90.841V94.0825C270.131 97.2842 267.486 99.7302 263.767 99.7302Z" fill="black"/>
<path d="M285.115 105H293.587V86.6649C293.587 83.2842 295.734 81.0371 298.558 81.0371C301.342 81.0371 303.212 82.9462 303.212 85.949V105H311.425V86.3467C311.425 83.1848 313.234 81.0371 316.317 81.0371C319.021 81.0371 321.05 82.7274 321.05 86.128V105H329.501V84.4575C329.501 77.8354 325.564 74.057 319.876 74.057C315.402 74.057 311.922 76.3439 310.669 79.8439H310.351C309.376 76.3041 306.254 74.057 302.058 74.057C297.942 74.057 294.82 76.2445 293.547 79.8439H293.189V74.4547H285.115V105Z" fill="black"/>
<path d="M336.193 105H344.665V74.4547H336.193V105ZM340.449 70.5172C342.974 70.5172 345.043 68.5882 345.043 66.2217C345.043 63.8751 342.974 61.9462 340.449 61.9462C337.943 61.9462 335.875 63.8751 335.875 66.2217C335.875 68.5882 337.943 70.5172 340.449 70.5172Z" fill="black"/>
<path d="M351.451 105H359.923V95.2956L362.209 92.6905L370.542 105H380.465L368.553 87.6791L379.888 74.4547H370.164L360.38 86.0484H359.923V64.2729H351.451V105Z" fill="black"/>
<path d="M396.707 105.597C404.264 105.597 409.355 101.918 410.548 96.2501L402.713 95.7331C401.858 98.0598 399.67 99.2729 396.846 99.2729C392.611 99.2729 389.926 96.4689 389.926 91.9149V91.895H410.727V89.5683C410.727 79.1876 404.443 74.057 396.369 74.057C387.381 74.057 381.554 80.4405 381.554 89.8666C381.554 99.5513 387.301 105.597 396.707 105.597ZM389.926 86.645C390.105 83.1649 392.75 80.3808 396.508 80.3808C400.187 80.3808 402.733 83.0058 402.753 86.645H389.926Z" fill="black"/>
<path d="M424.727 87.341C424.747 83.4035 427.094 81.0967 430.514 81.0967C433.915 81.0967 435.963 83.324 435.943 87.0626V105H444.415V85.5513C444.415 78.432 440.239 74.057 433.875 74.057C429.341 74.057 426.06 76.2842 424.687 79.8439H424.329V74.4547H416.256V105H424.727V87.341Z" fill="black"/>
<path d="M122 61.0031C122 58.6251 120.616 56.4901 118.481 55.568L94.7144 45.2577L118.471 34.9498C120.616 34.0229 122 31.8903 122 29.5146C122 27.139 120.616 25.0064 118.481 24.0843L64.7982 0.794958C62.3916 -0.262997 59.6251 -0.26538 57.2042 0.790193L3.52895 24.0819C1.38441 25.0088 0 27.1414 0 29.517C0 31.8927 1.38441 34.0253 3.51941 34.9474L27.2832 45.2601L3.52656 55.568C1.38441 56.4925 0 58.6251 0 61.0031C0 63.3788 1.38441 65.5114 3.51941 66.4335L27.2808 76.7414L3.52656 87.0469C1.38441 87.9762 0 90.1088 0 92.4868C0 94.8625 1.38441 96.9951 3.51941 97.9172L57.2089 121.211C58.4048 121.73 59.6941 121.998 60.9976 122C62.2891 122 63.5806 121.738 64.7863 121.211L118.469 97.922C120.613 96.9951 121.998 94.8625 121.998 92.4868C121.998 90.1088 120.613 87.9738 118.478 87.0517L94.7168 76.7438L118.471 66.4383C120.616 65.5114 122 63.3788 122 61.0031ZM10.7775 29.517L60.3471 8.01003L60.3543 8.00526C60.7689 7.83608 61.224 7.82417 61.6529 8.01003L111.223 29.517L61.6529 51.0264C61.2216 51.2099 60.7617 51.2099 60.3471 51.0264L10.7775 29.517ZM111.223 92.4868L61.6529 113.994C61.2216 114.177 60.7617 114.177 60.3471 113.994L10.7775 92.4845L37.1695 81.0328L57.2113 89.7276C58.4071 90.2464 59.6965 90.5148 61 90.5163C62.2915 90.5163 63.583 90.2542 64.7887 89.7276L84.8305 81.0328L111.223 92.4868ZM61.6529 82.5101C61.2216 82.6936 60.7617 82.6936 60.3471 82.5101L10.7775 61.0007L37.1719 49.5491L57.2113 58.2462C58.4071 58.765 59.6965 59.0334 61 59.0349C62.2915 59.0349 63.583 58.7728 64.7887 58.2462L84.8281 49.5515L111.223 61.0055L61.6529 82.5101Z" fill="black"/>
</svg>
