<svg xmlns="http://www.w3.org/2000/svg" xmlns:xlink="https://algorithmwatch.org" viewBox="0 0 2039.87 529.15">
<defs><clipPath id="clip-path" transform="translate(-16.52 -.34)"><path class="cls-1" d="M0 0h612.28v529.11H0z"/></clipPath><clipPath id="clip-path-2" transform="translate(-16.52 -.34)"><path class="cls-1" d="M0 0h612.28v529.11H0z"/></clipPath><clipPath id="clip-path-5" transform="translate(-16.52 -.34)"><path class="cls-1" d="M936.28 329.08a5.13 5.13 0 0 0-3.19 1 4.57 4.57 0 0 0-1.75 2.47l-46.41 151.23a45.57 45.57 0 0 0-1.3 5.52q-.52 2.93-1.17 6.05c-.44-2.17-.89-4.2-1.37-6.11s-1-3.73-1.62-5.46l-52-151.19a6.55 6.55 0 0 0-1.82-2.54 4.53 4.53 0 0 0-3-1H819a4.83 4.83 0 0 0-3.12 1 5.45 5.45 0 0 0-1.82 2.47l-52 151.19a46.17 46.17 0 0 0-1.56 5.59q-.66 3-1.3 6.24-.66-3.25-1.24-6.24c-.39-2-.85-3.86-1.36-5.59l-46.39-151.12a4.55 4.55 0 0 0-4.81-3.51h-11l58 184h11.83l54.46-159.64a65 65 0 0 0 1.83-6.63 65 65 0 0 0 1.82 6.63L876.61 513h12l57.84-183.95Zm67.7 24.31q.91-2.34 1.82-5.14t1.83-5.91q.9 3.12 1.82 5.91t1.82 5l37.57 92.95h-82.42Zm-3-24.31L925.73 513h10.14a4.82 4.82 0 0 0 3.11-1 5.66 5.66 0 0 0 1.83-2.47l21.58-53.43h90.34l21.72 53.43a6.32 6.32 0 0 0 1.82 2.53 4.49 4.49 0 0 0 3 1h10.26l-75.26-183.95Zm63.42 0v11.31h65V513h13.26V340.39h64.6v-11.31Zm437.53 0v85.8h-115.15v-85.8h-13.39V513h13.39v-88.11H1502V513h13.4V329.08Zm-252.63 4.74a82.4 82.4 0 0 0-28.47 19.24 87.07 87.07 0 0 0-18.46 29.71 106.8 106.8 0 0 0-6.56 38.22q0 21.31 6.36 38.74a87.31 87.31 0 0 0 17.75 29.7 77.7 77.7 0 0 0 27.3 19 89.38 89.38 0 0 0 35 6.7 108.42 108.42 0 0 0 21-1.89 86 86 0 0 0 17.55-5.33 77.46 77.46 0 0 0 14.76-8.32 86.7 86.7 0 0 0 12.48-11l-5.21-5.59a3 3 0 0 0-2.2-.91 2.83 2.83 0 0 0-1.37.32 9.53 9.53 0 0 0-1.24.85 90.75 90.75 0 0 1-11 8.84 64.37 64.37 0 0 1-12.09 6.37 69.6 69.6 0 0 1-14.24 3.9 106.74 106.74 0 0 1-17.61 1.3 74.57 74.57 0 0 1-29.19-5.66 67 67 0 0 1-23.34-16.25 75.33 75.33 0 0 1-15.47-25.93q-5.58-15.34-5.58-34.84 0-19 5.65-34.26a75.46 75.46 0 0 1 15.8-26 69.14 69.14 0 0 1 24.17-16.51 80.32 80.32 0 0 1 30.82-5.78 87.3 87.3 0 0 1 16.25 1.36 80.43 80.43 0 0 1 12.61 3.38 55.37 55.37 0 0 1 9.42 4.42c2.64 1.61 4.9 3.08 6.76 4.42s3.4 2.47 4.62 3.38a5.49 5.49 0 0 0 3 1.37 3.64 3.64 0 0 0 3.25-1.56l4-5.85a103.71 103.71 0 0 0-12.48-9.62 73.36 73.36 0 0 0-13.58-7 84.71 84.71 0 0 0-15.53-4.29 104.64 104.64 0 0 0-18.33-1.49 95.24 95.24 0 0 0-36.6 6.82m-477-292.43c.6-1.56 1.21-3.27 1.81-5.14s1.22-3.83 1.83-5.91q.9 3.12 1.82 5.91t1.82 5l37.57 93h-82.37Zm-3-24.31L694.09 201h10.13a4.88 4.88 0 0 0 3.13-1 5.56 5.56 0 0 0 1.81-2.47l21.59-53.43h90.35l21.71 53.43a6.42 6.42 0 0 0 1.82 2.53 4.5 4.5 0 0 0 3 1h10.27L782.61 17.08Zm101.12 0V201H971v-11.28h-87.26V17.08Zm492.18 10.57h33.67q24.57 0 37.43 9.49t12.88 29.12a41.09 41.09 0 0 1-3.51 17.29 36.28 36.28 0 0 1-10.21 13.13 47.09 47.09 0 0 1-16.38 8.38 75.73 75.73 0 0 1-21.9 2.93h-32Zm-13.26-10.53V201h13.26v-83.2h24.05q5.32 0 7.86 1.17a13.09 13.09 0 0 1 4.75 4l58.89 74.62a9.33 9.33 0 0 0 2.92 2.6 7.66 7.66 0 0 0 3.58.78h11.56l-63.3-79.56a21.05 21.05 0 0 0-5.59-5.2 73.18 73.18 0 0 0 21.7-5.53 55.57 55.57 0 0 0 16.45-10.68 45.07 45.07 0 0 0 10.47-15.27 49.55 49.55 0 0 0 3.64-19.24q0-23.79-15.74-36.08t-47.57-12.28Zm148.43 184h13.4v-184h-13.4Zm33.66-183.95v11.26h65V201h13.26V28.39h64.6V17.08Zm286.76 0v85.8H1703V17.08h-13.39V201H1703v-88.11h115.18V201h13.39V17.08Zm224 0a8.36 8.36 0 0 0-2.86.39 4.65 4.65 0 0 0-2.08 2.08l-72.29 127.79a34.9 34.9 0 0 0-1.88 3.83c-.56 1.35-1.1 2.71-1.63 4.1a51 51 0 0 0-3.38-7.8l-74.25-127.97a4.6 4.6 0 0 0-2.15-2.08 9 9 0 0 0-2.92-.39h-9.1V201h11.57V44.25a70.74 70.74 0 0 0-.39-7.28l74.36 128.7q1.95 3.38 5.2 3.38h2.07a5.69 5.69 0 0 0 5.21-3.38l72.41-128.57a69.62 69.62 0 0 0-.39 7.15V201h11.7V17.08ZM1057.65 15q-21.18 0-38.28 6.69a81.47 81.47 0 0 0-29.06 19 84.2 84.2 0 0 0-18.45 29.64q-6.51 17.35-6.5 38.68t6.5 38.74a85.59 85.59 0 0 0 18.26 29.7 80.57 80.57 0 0 0 28.21 19 95.36 95.36 0 0 0 36.34 6.7 154.28 154.28 0 0 0 21.32-1.37 123.72 123.72 0 0 0 18.19-3.89 96.19 96.19 0 0 0 15.86-6.31 120.26 120.26 0 0 0 14.3-8.58v-65.43h-50.82v7.28a2.78 2.78 0 0 0 1 2.08 3.38 3.38 0 0 0 2.41.91h35.36v49.53q-6.12 3.51-12.16 6.3a90.17 90.17 0 0 1-12.74 4.75 94.32 94.32 0 0 1-14.5 2.93 142 142 0 0 1-17.28 1 82.17 82.17 0 0 1-31.14-5.72 67.58 67.58 0 0 1-24.18-16.45A74.69 74.69 0 0 1 984.6 144q-5.6-15.5-5.6-35 0-19.11 5.52-34.45a72.6 72.6 0 0 1 15.73-26 68.51 68.51 0 0 1 24.64-16.38 87.26 87.26 0 0 1 32.37-5.72 92.28 92.28 0 0 1 23 2.47 83.54 83.54 0 0 1 15.8 5.59 60.65 60.65 0 0 1 10 6 27.47 27.47 0 0 0 5.65 3.64 4.88 4.88 0 0 0 2.21.52 3.63 3.63 0 0 0 3.26-2l3.5-5.72a96.05 96.05 0 0 0-12.68-9.41 78.28 78.28 0 0 0-14.29-6.89 90.14 90.14 0 0 0-16.58-4.22 123.37 123.37 0 0 0-19.48-1.43ZM1201 185.82a65 65 0 0 1-23.4-16.25 74.33 74.33 0 0 1-15.21-25.94Q1157 128.36 1157 109t5.4-34.58a74.24 74.24 0 0 1 15.21-26A65.67 65.67 0 0 1 1201 32.09a77.23 77.23 0 0 1 30-5.65 78.34 78.34 0 0 1 30.28 5.65 64.32 64.32 0 0 1 23.34 16.32 74.5 74.5 0 0 1 15 26q5.33 15.35 5.33 34.58t-5.33 34.64a74.59 74.59 0 0 1-15 25.94 63.67 63.67 0 0 1-23.34 16.25 79.08 79.08 0 0 1-30.28 5.59 78 78 0 0 1-30-5.59M1231 15a90.85 90.85 0 0 0-35.5 6.76 80.11 80.11 0 0 0-27.68 19 86.39 86.39 0 0 0-18 29.64q-6.43 17.37-6.43 38.55t6.43 38.67a86.39 86.39 0 0 0 18 29.64 79.28 79.28 0 0 0 27.68 19 98.06 98.06 0 0 0 71.25 0 79.28 79.28 0 0 0 27.68-19 85.65 85.65 0 0 0 18-29.64q6.36-17.34 6.37-38.67a111.38 111.38 0 0 0-6.37-38.55 86.3 86.3 0 0 0-18-29.7 79.06 79.06 0 0 0-27.68-19 92.44 92.44 0 0 0-35.82-6.7Z"/></clipPath><style>.cls-1{fill:none}.cls-2{clip-path:url(#clip-path)}.cls-6{clip-path:url(#clip-path-2)}</style></defs><g id="Ebene_2" data-name="Ebene 2"><g id="Ebene_1-2" data-name="Ebene 1"><g class="cls-2"><path d="M493.06 349.33c5.53 0 7.88 3.94 5.25 8.8l-87 161.21c-2.62 4.86-6.88 4.86-9.5 0l-87-161.21c-2.62-4.86-.27-8.8 5.25-8.8Z" transform="translate(-16.52 -.34)" style="stroke-miterlimit:10;stroke-width:13px;stroke:#e41e0d;fill:none"/><path d="M396.72 175.56c5.53 0 7.83-3.92 5.15-8.74L315.08 10.46c-2.68-4.83-7-4.83-9.7 0l-86.79 156.36c-2.68 4.82-.37 8.74 5.15 8.74Z" transform="translate(-16.52 -.34)" style="stroke:#50ae32;stroke-miterlimit:10;stroke-width:13px;fill:none"/><path d="M203.23 175.56c5.53 0 7.3 3.92 4.62 8.75L121 340.79c-2.67 4.83-7.41 4.7-10 0L24.19 184.48c-2.77-5-.46-8.92 5.06-8.92h174Z" transform="translate(-16.52 -.34)" style="stroke:#19b0e7;stroke-miterlimit:10;stroke-width:13px;fill:none"/></g><path d="M584.58 179.22c5.53.12 7.88 4.15 5.26 9l-82.18 152.39c-2.62 4.86-6.92 4.88-9.6.06L411.27 184.3c-2.68-4.82-.37-8.64 5.15-8.53Z" transform="translate(-16.52 -.34)" style="stroke:#f7a400;stroke-miterlimit:10;stroke-width:13px;fill:none" class="cls-6"/><g class="cls-2"><path d="M493.06 349.41c5.53 0 7.83-3.92 5.15-8.74l-86.79-156.36c-2.68-4.83-7-4.83-9.7 0l-86.79 156.36c-2.68 4.82-.37 8.74 5.15 8.74Z" transform="translate(-16.52 -.34)" style="stroke:#a70904;stroke-miterlimit:10;stroke-width:13px;fill:none"/><path d="M299.11 349.41c5.53 0 7.83 3.91 5.16 8.74l-86.8 156.36c-2.67 4.83-7 4.82-9.7 0L121 358.15c-2.68-4.83-.37-8.74 5.15-8.74Z" transform="translate(-16.52 -.34)" style="stroke:#1a4372;stroke-miterlimit:10;stroke-width:13px;fill:none"/></g><g class="cls-6"><path d="M300.37 349.54c5.52 0 7.83-3.92 5.15-8.75L218.59 184.3c-2.68-4.82-8.13-4.69-10.81.13L121 340.79c-2.67 4.83.89 8.75 6.41 8.75h173Z" transform="translate(-16.52 -.34)" style="stroke:#08769e;stroke-miterlimit:10;stroke-width:13px;fill:none"/><path d="M396.72 175.56c5.53 0 7.83 3.92 5.15 8.75l-86.79 156.36c-2.68 4.82-7 4.82-9.7 0l-86.79-156.36c-2.68-4.83-.37-8.75 5.15-8.75Z" transform="translate(-16.52 -.34)" style="stroke:#196c21;stroke-miterlimit:10;stroke-width:13px;fill:none"/></g><g style="clip-path:url(#clip-path-5)"><path style="fill:#666665" d="M672.57 9.66h1367.3v510.11H672.57z"/></g></g></g>
</svg>