<svg width="1677" height="364" viewBox="0 0 1677 364" fill="none" xmlns="http://www.w3.org/2000/svg">
<g clip-path="url(#clip0_172_575)">
<path fill-rule="evenodd" clip-rule="evenodd" d="M173.965 164.286L309.208 72.09L161.742 1.06398L173.965 164.286ZM193.926 122.842L263.336 75.525L187.653 39.0724L193.926 122.842Z" fill="#253169"/>
<path fill-rule="evenodd" clip-rule="evenodd" d="M153.069 164.569L43.6776 115.826L140.586 45.4613L153.069 164.569ZM126.042 127.346L89.427 111.031L121.864 87.4789L126.042 127.346Z" fill="#D4161A"/>
<path fill-rule="evenodd" clip-rule="evenodd" d="M173.965 201.007L309.208 293.203L161.742 364.229L173.965 201.007ZM193.926 242.451L263.336 289.768L187.653 326.221L193.926 242.451Z" fill="#5BA896"/>
<path fill-rule="evenodd" clip-rule="evenodd" d="M46.7446 304.317L160.178 186.319L1.27128 147.082L46.7446 304.317ZM57.7716 259.658L115.989 199.098L34.4334 178.961L57.7716 259.658Z" fill="#253169"/>
<path fill-rule="evenodd" clip-rule="evenodd" d="M310.411 258.073L180.661 183.162L310.411 108.25L310.411 258.073ZM287.411 218.236L226.661 183.162L287.411 148.087L287.411 218.236Z" fill="#F6CC00"/>
<path d="M416.79 286C414.863 286 413.226 285.422 411.877 284.266C410.721 282.917 410.143 281.279 410.143 279.353V90.6356C410.143 88.5162 410.721 86.8786 411.877 85.7226C413.226 84.3739 414.863 83.6996 416.79 83.6996H482.393C511.486 83.6996 532.486 90.2502 545.395 103.352C558.304 116.26 565.047 135.816 565.625 162.019C565.818 167.606 565.914 175.12 565.914 184.561C565.914 194.001 565.818 201.612 565.625 207.392C565.047 225.695 561.964 240.627 556.377 252.187C550.982 263.554 542.409 272.031 530.656 277.619C518.903 283.206 503.297 286 483.838 286H416.79ZM482.393 261.435C495.687 261.435 506.187 259.604 513.894 255.944C521.793 252.283 527.477 246.503 530.945 238.604C534.606 230.512 536.629 219.722 537.014 206.236C537.399 194.676 537.592 187.451 537.592 184.561C537.592 181.478 537.399 174.349 537.014 163.175C536.629 144.101 532.101 130.229 523.431 121.559C514.761 112.696 500.6 108.265 480.948 108.265H438.465V261.435H482.393Z" fill="black"/>
<path d="M647.543 288.89C638.102 288.89 629.336 286.963 621.244 283.11C613.152 279.256 606.698 274.054 601.881 267.504C597.257 260.76 594.945 253.343 594.945 245.251C594.945 232.535 600.147 222.131 610.551 214.039C621.148 205.754 635.405 200.359 653.323 197.855L696.384 191.786V183.405C696.384 163.753 685.113 153.927 662.571 153.927C654.094 153.927 647.158 155.757 641.763 159.418C636.368 162.886 632.322 167.028 629.625 171.845C629.047 173.579 628.276 174.831 627.313 175.602C626.542 176.372 625.386 176.758 623.845 176.758H611.418C609.684 176.758 608.143 176.18 606.794 175.024C605.638 173.675 605.06 172.134 605.06 170.4C605.253 165.776 607.372 160.574 611.418 154.794C615.657 148.821 622.111 143.715 630.781 139.477C639.451 135.045 650.144 132.83 662.86 132.83C684.439 132.83 699.948 137.935 709.389 148.147C718.83 158.165 723.55 170.689 723.55 185.717V279.353C723.55 281.279 722.876 282.917 721.527 284.266C720.371 285.422 718.83 286 716.903 286H703.609C701.682 286 700.045 285.422 698.696 284.266C697.54 282.917 696.962 281.279 696.962 279.353V266.926C692.723 273.091 686.558 278.293 678.466 282.532C670.374 286.77 660.066 288.89 647.543 288.89ZM653.612 267.215C666.135 267.215 676.347 263.169 684.246 255.077C692.338 246.792 696.384 234.943 696.384 219.53V211.438L662.86 216.351C649.181 218.277 638.873 221.553 631.937 226.177C625.001 230.608 621.533 236.292 621.533 243.228C621.533 250.934 624.712 256.907 631.07 261.146C637.428 265.192 644.942 267.215 653.612 267.215Z" fill="black"/>
<path d="M822.352 286C791.911 286 776.69 269.045 776.69 235.136V158.84H754.148C752.221 158.84 750.584 158.262 749.235 157.106C748.079 155.757 747.501 154.119 747.501 152.193V142.367C747.501 140.44 748.079 138.899 749.235 137.743C750.584 136.394 752.221 135.72 754.148 135.72H776.69V87.4566C776.69 85.5299 777.268 83.9886 778.424 82.8326C779.773 81.4839 781.41 80.8096 783.337 80.8096H796.92C798.847 80.8096 800.388 81.4839 801.544 82.8326C802.893 83.9886 803.567 85.5299 803.567 87.4566V135.72H839.403C841.33 135.72 842.871 136.394 844.027 137.743C845.376 138.899 846.05 140.44 846.05 142.367V152.193C846.05 154.119 845.376 155.757 844.027 157.106C842.871 158.262 841.33 158.84 839.403 158.84H803.567V233.113C803.567 242.746 805.205 250.067 808.48 255.077C811.755 259.893 817.15 262.302 824.664 262.302H842.293C844.22 262.302 845.761 262.976 846.917 264.325C848.266 265.481 848.94 267.022 848.94 268.949V279.353C848.94 281.279 848.266 282.917 846.917 284.266C845.761 285.422 844.22 286 842.293 286H822.352Z" fill="black"/>
<path d="M918.481 288.89C909.04 288.89 900.274 286.963 892.182 283.11C884.09 279.256 877.635 274.054 872.819 267.504C868.195 260.76 865.883 253.343 865.883 245.251C865.883 232.535 871.085 222.131 881.489 214.039C892.085 205.754 906.342 200.359 924.26 197.855L967.322 191.786V183.405C967.322 163.753 956.051 153.927 933.509 153.927C925.031 153.927 918.095 155.757 912.701 159.418C907.306 162.886 903.26 167.028 900.562 171.845C899.984 173.579 899.214 174.831 898.25 175.602C897.48 176.372 896.324 176.758 894.783 176.758H882.356C880.622 176.758 879.08 176.18 877.732 175.024C876.576 173.675 875.998 172.134 875.998 170.4C876.19 165.776 878.31 160.574 882.356 154.794C886.594 148.821 893.048 143.715 901.719 139.477C910.389 135.045 921.082 132.83 933.798 132.83C955.376 132.83 970.886 137.935 980.327 148.147C989.767 158.165 994.488 170.689 994.488 185.717V279.353C994.488 281.279 993.813 282.917 992.465 284.266C991.309 285.422 989.767 286 987.841 286H974.547C972.62 286 970.982 285.422 969.634 284.266C968.478 282.917 967.9 281.279 967.9 279.353V266.926C963.661 273.091 957.495 278.293 949.404 282.532C941.312 286.77 931.004 288.89 918.481 288.89ZM924.549 267.215C937.073 267.215 947.284 263.169 955.184 255.077C963.276 246.792 967.322 234.943 967.322 219.53V211.438L933.798 216.351C920.118 218.277 909.811 221.553 902.875 226.177C895.939 230.608 892.471 236.292 892.471 243.228C892.471 250.934 895.65 256.907 902.008 261.146C908.366 265.192 915.879 267.215 924.549 267.215Z" fill="black"/>
<path d="M1104.82 288.89C1088.82 288.89 1074.95 286.385 1063.2 281.376C1051.64 276.366 1042.78 269.816 1036.61 261.724C1030.45 253.439 1027.17 244.576 1026.79 235.136C1026.79 233.594 1027.36 232.246 1028.52 231.09C1029.87 229.741 1031.41 229.067 1033.14 229.067H1047.88C1051.54 229.067 1054.05 230.993 1055.4 234.847C1057.13 242.939 1062.04 249.875 1070.14 255.655C1078.42 261.435 1089.98 264.325 1104.82 264.325C1120.81 264.325 1132.85 261.531 1140.94 255.944C1149.03 250.164 1153.08 242.168 1153.08 231.957C1153.08 225.406 1151.06 220.108 1147.01 216.062C1143.16 212.016 1137.38 208.451 1129.67 205.369C1121.96 202.286 1110.4 198.433 1094.99 193.809C1079.96 189.57 1068.02 185.042 1059.15 180.226C1050.29 175.409 1043.64 169.436 1039.21 162.308C1034.78 155.179 1032.57 146.22 1032.57 135.431C1032.57 125.027 1035.36 115.682 1040.95 107.398C1046.73 99.1129 1054.91 92.6586 1065.51 88.0346C1076.11 83.2179 1088.73 80.8096 1103.37 80.8096C1118.4 80.8096 1131.31 83.5069 1142.1 88.9016C1152.89 94.1036 1161.07 100.751 1166.66 108.843C1172.25 116.935 1175.24 125.027 1175.62 133.119C1175.62 134.66 1175.04 136.009 1173.89 137.165C1172.92 138.321 1171.48 138.899 1169.55 138.899H1154.23C1150.19 138.899 1147.68 137.068 1146.72 133.408C1145.56 125.316 1141.04 118.669 1133.14 113.467C1125.24 108.072 1115.32 105.375 1103.37 105.375C1090.27 105.375 1079.96 107.879 1072.45 112.889C1064.93 117.898 1061.18 125.316 1061.18 135.142C1061.18 141.692 1062.91 147.087 1066.38 151.326C1070.04 155.564 1075.53 159.321 1082.85 162.597C1090.17 165.679 1100.87 169.244 1114.93 173.29C1131.31 177.721 1144.22 182.345 1153.66 187.162C1163.1 191.786 1170.13 197.662 1174.75 204.791C1179.38 211.727 1181.69 220.589 1181.69 231.379C1181.69 249.297 1174.75 263.361 1160.88 273.573C1147.01 283.784 1128.32 288.89 1104.82 288.89Z" fill="black"/>
<path d="M1222.75 286C1220.82 286 1219.18 285.422 1217.83 284.266C1216.68 282.917 1216.1 281.279 1216.1 279.353V87.4566C1216.1 85.5299 1216.68 83.9886 1217.83 82.8326C1219.18 81.4839 1220.82 80.8096 1222.75 80.8096H1236.33C1238.26 80.8096 1239.8 81.4839 1240.95 82.8326C1242.3 83.9886 1242.98 85.5299 1242.98 87.4566V188.029L1299.91 140.633C1300.49 140.247 1301.45 139.477 1302.8 138.321C1304.15 137.357 1305.4 136.683 1306.56 136.298C1307.91 135.912 1309.54 135.72 1311.47 135.72H1326.79C1328.52 135.72 1329.97 136.298 1331.12 137.454C1332.28 138.61 1332.86 140.055 1332.86 141.789C1332.86 143.908 1331.7 145.738 1329.39 147.28L1262.63 202.768L1336.61 274.729C1338.93 276.655 1340.08 278.389 1340.08 279.931C1340.08 281.665 1339.5 283.11 1338.35 284.266C1337.19 285.422 1335.75 286 1334.01 286H1318.98C1316.09 286 1313.98 285.711 1312.63 285.133C1311.47 284.555 1309.74 283.206 1307.42 281.087L1242.98 219.53V279.353C1242.98 281.279 1242.3 282.917 1240.95 284.266C1239.8 285.422 1238.26 286 1236.33 286H1222.75Z" fill="black"/>
<path d="M1419.33 288.89C1398.14 288.89 1381.66 282.917 1369.91 270.972C1358.35 259.026 1352.18 243.131 1351.41 223.287L1351.12 210.86L1351.41 198.433C1352.18 178.781 1358.45 162.982 1370.2 151.037C1381.95 138.899 1398.33 132.83 1419.33 132.83C1440.33 132.83 1456.71 138.899 1468.46 151.037C1480.21 162.982 1486.47 178.781 1487.24 198.433C1487.44 200.552 1487.53 204.694 1487.53 210.86C1487.53 217.025 1487.44 221.167 1487.24 223.287C1486.47 243.131 1480.21 259.026 1468.46 270.972C1456.9 282.917 1440.52 288.89 1419.33 288.89ZM1419.33 266.637C1431.47 266.637 1441 262.783 1447.94 255.077C1455.07 247.37 1458.92 236.292 1459.5 221.842C1459.69 219.915 1459.79 216.254 1459.79 210.86C1459.79 205.465 1459.69 201.804 1459.5 199.878C1458.92 185.428 1455.07 174.349 1447.94 166.643C1441 158.936 1431.47 155.083 1419.33 155.083C1407.19 155.083 1397.56 158.936 1390.43 166.643C1383.3 174.349 1379.54 185.428 1379.16 199.878L1378.87 210.86L1379.16 221.842C1379.54 236.292 1383.3 247.37 1390.43 255.077C1397.56 262.783 1407.19 266.637 1419.33 266.637Z" fill="black"/>
<path d="M1530.66 340.91C1528.73 340.91 1527.09 340.235 1525.74 338.887C1524.59 337.731 1524.01 336.189 1524.01 334.263V142.367C1524.01 140.44 1524.59 138.899 1525.74 137.743C1527.09 136.394 1528.73 135.72 1530.66 135.72H1543.95C1545.88 135.72 1547.42 136.394 1548.58 137.743C1549.92 138.899 1550.6 140.44 1550.6 142.367V155.083C1561.39 140.247 1577.19 132.83 1597.99 132.83C1618.22 132.83 1633.35 139.188 1643.37 151.904C1653.58 164.62 1659.07 180.996 1659.84 201.034C1660.03 203.153 1660.13 206.428 1660.13 210.86C1660.13 215.291 1660.03 218.566 1659.84 220.686C1659.07 240.53 1653.58 256.907 1643.37 269.816C1633.16 282.532 1618.03 288.89 1597.99 288.89C1577.96 288.89 1562.35 281.665 1551.18 267.215V334.263C1551.18 336.189 1550.6 337.731 1549.44 338.887C1548.29 340.235 1546.74 340.91 1544.82 340.91H1530.66ZM1591.93 265.481C1605.6 265.481 1615.53 261.242 1621.69 252.765C1628.05 244.287 1631.52 233.113 1632.1 219.241C1632.29 217.314 1632.39 214.52 1632.39 210.86C1632.39 174.446 1618.9 156.239 1591.93 156.239C1578.63 156.239 1568.61 160.67 1561.87 169.533C1555.32 178.203 1551.75 188.607 1551.18 200.745L1550.89 211.727L1551.18 222.998C1551.56 234.365 1555.22 244.287 1562.16 252.765C1569.09 261.242 1579.02 265.481 1591.93 265.481Z" fill="black"/>
</g>
<defs>
<clipPath id="clip0_172_575">
<rect width="1677" height="364" fill="white"/>
</clipPath>
</defs>
</svg>
